<mxfile host="Electron" modified="2023-06-23T02:46:48.964Z" agent="Mozilla/5.0 (Macintosh; Intel Mac OS X 10_15_7) AppleWebKit/537.36 (KHTML, like Gecko) draw.io/21.2.1 Chrome/112.0.5615.87 Electron/24.1.2 Safari/537.36" etag="ynamBj7ktJ4qoyy3SRuZ" version="21.2.1" type="device">
  <diagram name="第 1 页" id="Nk5ZltahSBu3CmyGkqiz">
    <mxGraphModel dx="984" dy="646" grid="1" gridSize="10" guides="1" tooltips="1" connect="1" arrows="1" fold="1" page="1" pageScale="1" pageWidth="827" pageHeight="1169" math="0" shadow="0">
      <root>
        <mxCell id="0" />
        <mxCell id="1" parent="0" />
        <mxCell id="J44L4LAcGoxyAIgyRVFN-1" value="Hombre" style="rounded=0;whiteSpace=wrap;html=1;" parent="1" vertex="1">
          <mxGeometry x="50" y="150" width="240" height="170" as="geometry" />
        </mxCell>
        <mxCell id="J44L4LAcGoxyAIgyRVFN-2" value="enp4s0 (192.168.1.167)" style="rounded=0;whiteSpace=wrap;html=1;" parent="1" vertex="1">
          <mxGeometry x="200" y="160" width="90" height="30" as="geometry" />
        </mxCell>
        <mxCell id="J44L4LAcGoxyAIgyRVFN-3" value="" style="endArrow=none;html=1;rounded=0;exitX=1;exitY=0.5;exitDx=0;exitDy=0;" parent="1" source="J44L4LAcGoxyAIgyRVFN-2" target="J44L4LAcGoxyAIgyRVFN-4" edge="1">
          <mxGeometry width="50" height="50" relative="1" as="geometry">
            <mxPoint x="390" y="360" as="sourcePoint" />
            <mxPoint x="390" y="175" as="targetPoint" />
          </mxGeometry>
        </mxCell>
        <mxCell id="J44L4LAcGoxyAIgyRVFN-4" value="AP&lt;br&gt;LossWiFi 2.4" style="ellipse;whiteSpace=wrap;html=1;" parent="1" vertex="1">
          <mxGeometry x="330" y="135" width="80" height="80" as="geometry" />
        </mxCell>
        <mxCell id="J44L4LAcGoxyAIgyRVFN-6" value="Laptop MacOS" style="rounded=0;whiteSpace=wrap;html=1;" parent="1" vertex="1">
          <mxGeometry x="470" y="150" width="340" height="150" as="geometry" />
        </mxCell>
        <mxCell id="J44L4LAcGoxyAIgyRVFN-7" value="en0 (172.25.100.217)" style="rounded=0;whiteSpace=wrap;html=1;" parent="1" vertex="1">
          <mxGeometry x="470" y="257.5" width="130" height="30" as="geometry" />
        </mxCell>
        <mxCell id="J44L4LAcGoxyAIgyRVFN-8" value="VM" style="rounded=0;whiteSpace=wrap;html=1;" parent="1" vertex="1">
          <mxGeometry x="640" y="162.5" width="160" height="125" as="geometry" />
        </mxCell>
        <mxCell id="J44L4LAcGoxyAIgyRVFN-9" value="enp1s0f0 (172.26.191.88)" style="rounded=0;whiteSpace=wrap;html=1;" parent="1" vertex="1">
          <mxGeometry x="200" y="265" width="90" height="30" as="geometry" />
        </mxCell>
        <mxCell id="J44L4LAcGoxyAIgyRVFN-10" value="NUS_STU" style="ellipse;whiteSpace=wrap;html=1;" parent="1" vertex="1">
          <mxGeometry x="330" y="240" width="80" height="80" as="geometry" />
        </mxCell>
        <mxCell id="J44L4LAcGoxyAIgyRVFN-11" value="" style="endArrow=none;dashed=1;html=1;rounded=0;exitX=1;exitY=0.5;exitDx=0;exitDy=0;" parent="1" edge="1">
          <mxGeometry width="50" height="50" relative="1" as="geometry">
            <mxPoint x="410" y="280" as="sourcePoint" />
            <mxPoint x="470" y="280" as="targetPoint" />
          </mxGeometry>
        </mxCell>
        <mxCell id="J44L4LAcGoxyAIgyRVFN-13" value="" style="endArrow=none;dashed=1;html=1;rounded=0;exitX=1;exitY=0.5;exitDx=0;exitDy=0;entryX=0;entryY=0.5;entryDx=0;entryDy=0;" parent="1" source="J44L4LAcGoxyAIgyRVFN-9" target="J44L4LAcGoxyAIgyRVFN-10" edge="1">
          <mxGeometry width="50" height="50" relative="1" as="geometry">
            <mxPoint x="290" y="272" as="sourcePoint" />
            <mxPoint x="350" y="272" as="targetPoint" />
          </mxGeometry>
        </mxCell>
        <mxCell id="J44L4LAcGoxyAIgyRVFN-15" value="wlx8416f9171bbc(192.168.1.125)" style="rounded=0;whiteSpace=wrap;html=1;" parent="1" vertex="1">
          <mxGeometry x="640" y="170" width="130" height="30" as="geometry" />
        </mxCell>
        <mxCell id="J44L4LAcGoxyAIgyRVFN-5" value="" style="endArrow=none;dashed=1;html=1;rounded=0;exitX=1;exitY=0.5;exitDx=0;exitDy=0;entryX=0.25;entryY=0;entryDx=0;entryDy=0;" parent="1" source="J44L4LAcGoxyAIgyRVFN-4" target="J44L4LAcGoxyAIgyRVFN-15" edge="1">
          <mxGeometry width="50" height="50" relative="1" as="geometry">
            <mxPoint x="390" y="350" as="sourcePoint" />
            <mxPoint x="470" y="175" as="targetPoint" />
            <Array as="points">
              <mxPoint x="510" y="110" />
            </Array>
          </mxGeometry>
        </mxCell>
        <mxCell id="J44L4LAcGoxyAIgyRVFN-16" value="enp0s5 (10.211.55.3)" style="rounded=0;whiteSpace=wrap;html=1;" parent="1" vertex="1">
          <mxGeometry x="640" y="250" width="130" height="30" as="geometry" />
        </mxCell>
        <mxCell id="J44L4LAcGoxyAIgyRVFN-17" value="" style="endArrow=none;html=1;rounded=0;exitX=1;exitY=0.25;exitDx=0;exitDy=0;entryX=0;entryY=0.5;entryDx=0;entryDy=0;" parent="1" source="J44L4LAcGoxyAIgyRVFN-7" target="J44L4LAcGoxyAIgyRVFN-16" edge="1">
          <mxGeometry width="50" height="50" relative="1" as="geometry">
            <mxPoint x="300" y="185" as="sourcePoint" />
            <mxPoint x="340" y="185" as="targetPoint" />
          </mxGeometry>
        </mxCell>
        <mxCell id="J44L4LAcGoxyAIgyRVFN-19" value="Test link" style="text;html=1;align=center;verticalAlign=middle;resizable=0;points=[];autosize=1;strokeColor=none;fillColor=none;" parent="1" vertex="1">
          <mxGeometry x="470" y="80" width="70" height="30" as="geometry" />
        </mxCell>
        <mxCell id="J44L4LAcGoxyAIgyRVFN-20" value="Reliable link" style="text;html=1;align=center;verticalAlign=middle;resizable=0;points=[];autosize=1;strokeColor=none;fillColor=none;" parent="1" vertex="1">
          <mxGeometry x="400" y="300" width="90" height="30" as="geometry" />
        </mxCell>
        <mxCell id="J44L4LAcGoxyAIgyRVFN-21" value="Hombre" style="rounded=0;whiteSpace=wrap;html=1;" parent="1" vertex="1">
          <mxGeometry x="34" y="470" width="240" height="170" as="geometry" />
        </mxCell>
        <mxCell id="J44L4LAcGoxyAIgyRVFN-22" value="enp4s0 (192.168.1.167)" style="rounded=0;whiteSpace=wrap;html=1;" parent="1" vertex="1">
          <mxGeometry x="184" y="480" width="90" height="30" as="geometry" />
        </mxCell>
        <mxCell id="J44L4LAcGoxyAIgyRVFN-23" value="" style="endArrow=none;html=1;rounded=0;exitX=1;exitY=0.5;exitDx=0;exitDy=0;" parent="1" source="J44L4LAcGoxyAIgyRVFN-22" target="J44L4LAcGoxyAIgyRVFN-24" edge="1">
          <mxGeometry width="50" height="50" relative="1" as="geometry">
            <mxPoint x="374" y="680" as="sourcePoint" />
            <mxPoint x="374" y="495" as="targetPoint" />
          </mxGeometry>
        </mxCell>
        <mxCell id="J44L4LAcGoxyAIgyRVFN-24" value="AP&lt;br&gt;LossWiFi 2.4" style="ellipse;whiteSpace=wrap;html=1;" parent="1" vertex="1">
          <mxGeometry x="314" y="455" width="80" height="80" as="geometry" />
        </mxCell>
        <mxCell id="J44L4LAcGoxyAIgyRVFN-25" value="Laptop MacOS" style="rounded=0;whiteSpace=wrap;html=1;" parent="1" vertex="1">
          <mxGeometry x="454" y="470" width="340" height="150" as="geometry" />
        </mxCell>
        <mxCell id="J44L4LAcGoxyAIgyRVFN-26" value="en0 (172.25.100.217)" style="rounded=0;whiteSpace=wrap;html=1;" parent="1" vertex="1">
          <mxGeometry x="454" y="577.5" width="130" height="30" as="geometry" />
        </mxCell>
        <mxCell id="J44L4LAcGoxyAIgyRVFN-27" value="VM" style="rounded=0;whiteSpace=wrap;html=1;" parent="1" vertex="1">
          <mxGeometry x="624" y="482.5" width="160" height="125" as="geometry" />
        </mxCell>
        <mxCell id="J44L4LAcGoxyAIgyRVFN-29" value="AP&lt;br&gt;LossWiFi 5" style="ellipse;whiteSpace=wrap;html=1;" parent="1" vertex="1">
          <mxGeometry x="314" y="560" width="80" height="80" as="geometry" />
        </mxCell>
        <mxCell id="J44L4LAcGoxyAIgyRVFN-30" value="" style="endArrow=none;dashed=1;html=1;rounded=0;exitX=1;exitY=0.5;exitDx=0;exitDy=0;" parent="1" edge="1">
          <mxGeometry width="50" height="50" relative="1" as="geometry">
            <mxPoint x="394" y="600" as="sourcePoint" />
            <mxPoint x="454" y="600" as="targetPoint" />
          </mxGeometry>
        </mxCell>
        <mxCell id="J44L4LAcGoxyAIgyRVFN-32" value="wlx8416f9171bbc(192.168.1.125)" style="rounded=0;whiteSpace=wrap;html=1;" parent="1" vertex="1">
          <mxGeometry x="624" y="490" width="130" height="30" as="geometry" />
        </mxCell>
        <mxCell id="J44L4LAcGoxyAIgyRVFN-33" value="" style="endArrow=none;dashed=1;html=1;rounded=0;exitX=1;exitY=0.5;exitDx=0;exitDy=0;entryX=0.25;entryY=0;entryDx=0;entryDy=0;" parent="1" source="J44L4LAcGoxyAIgyRVFN-24" target="J44L4LAcGoxyAIgyRVFN-32" edge="1">
          <mxGeometry width="50" height="50" relative="1" as="geometry">
            <mxPoint x="374" y="670" as="sourcePoint" />
            <mxPoint x="454" y="495" as="targetPoint" />
            <Array as="points">
              <mxPoint x="494" y="430" />
            </Array>
          </mxGeometry>
        </mxCell>
        <mxCell id="J44L4LAcGoxyAIgyRVFN-34" value="enp0s5 (10.211.55.3)" style="rounded=0;whiteSpace=wrap;html=1;" parent="1" vertex="1">
          <mxGeometry x="624" y="570" width="130" height="30" as="geometry" />
        </mxCell>
        <mxCell id="J44L4LAcGoxyAIgyRVFN-35" value="" style="endArrow=none;html=1;rounded=0;exitX=1;exitY=0.25;exitDx=0;exitDy=0;entryX=0;entryY=0.5;entryDx=0;entryDy=0;" parent="1" source="J44L4LAcGoxyAIgyRVFN-26" target="J44L4LAcGoxyAIgyRVFN-34" edge="1">
          <mxGeometry width="50" height="50" relative="1" as="geometry">
            <mxPoint x="284" y="505" as="sourcePoint" />
            <mxPoint x="324" y="505" as="targetPoint" />
          </mxGeometry>
        </mxCell>
        <mxCell id="J44L4LAcGoxyAIgyRVFN-36" value="Test link" style="text;html=1;align=center;verticalAlign=middle;resizable=0;points=[];autosize=1;strokeColor=none;fillColor=none;" parent="1" vertex="1">
          <mxGeometry x="454" y="400" width="70" height="30" as="geometry" />
        </mxCell>
        <mxCell id="J44L4LAcGoxyAIgyRVFN-37" value="Reliable link" style="text;html=1;align=center;verticalAlign=middle;resizable=0;points=[];autosize=1;strokeColor=none;fillColor=none;" parent="1" vertex="1">
          <mxGeometry x="384" y="620" width="90" height="30" as="geometry" />
        </mxCell>
        <mxCell id="J44L4LAcGoxyAIgyRVFN-38" value="" style="endArrow=none;html=1;rounded=0;entryX=0;entryY=0.5;entryDx=0;entryDy=0;" parent="1" target="J44L4LAcGoxyAIgyRVFN-29" edge="1">
          <mxGeometry width="50" height="50" relative="1" as="geometry">
            <mxPoint x="290" y="495" as="sourcePoint" />
            <mxPoint x="324" y="505" as="targetPoint" />
          </mxGeometry>
        </mxCell>
        <mxCell id="J44L4LAcGoxyAIgyRVFN-39" value="./saturatr" style="text;html=1;align=center;verticalAlign=middle;resizable=0;points=[];autosize=1;strokeColor=none;fillColor=none;" parent="1" vertex="1">
          <mxGeometry x="70" y="640" width="70" height="30" as="geometry" />
        </mxCell>
        <mxCell id="J44L4LAcGoxyAIgyRVFN-40" value="./saturatr 10.211.55.3 enp0s5 192.168.1.125 wlx8416f9171bbc 192.168.1.167" style="text;whiteSpace=wrap;html=1;" parent="1" vertex="1">
          <mxGeometry x="384" y="650" width="450" height="40" as="geometry" />
        </mxCell>
        <mxCell id="GQkewHSHmFKiDq2fi6M9-3" value="Hombre" style="rounded=0;whiteSpace=wrap;html=1;" parent="1" vertex="1">
          <mxGeometry x="34" y="790" width="240" height="170" as="geometry" />
        </mxCell>
        <mxCell id="GQkewHSHmFKiDq2fi6M9-4" value="enp4s0 (192.168.1.167)" style="rounded=0;whiteSpace=wrap;html=1;" parent="1" vertex="1">
          <mxGeometry x="184" y="800" width="90" height="30" as="geometry" />
        </mxCell>
        <mxCell id="GQkewHSHmFKiDq2fi6M9-5" value="" style="endArrow=none;html=1;rounded=0;exitX=1;exitY=0.5;exitDx=0;exitDy=0;" parent="1" source="GQkewHSHmFKiDq2fi6M9-4" target="GQkewHSHmFKiDq2fi6M9-6" edge="1">
          <mxGeometry width="50" height="50" relative="1" as="geometry">
            <mxPoint x="374" y="1000" as="sourcePoint" />
            <mxPoint x="374" y="815" as="targetPoint" />
          </mxGeometry>
        </mxCell>
        <mxCell id="GQkewHSHmFKiDq2fi6M9-6" value="AP&lt;br&gt;LossWiFi 2.4" style="ellipse;whiteSpace=wrap;html=1;" parent="1" vertex="1">
          <mxGeometry x="314" y="775" width="80" height="80" as="geometry" />
        </mxCell>
        <mxCell id="GQkewHSHmFKiDq2fi6M9-7" value="Laptop MacOS" style="rounded=0;whiteSpace=wrap;html=1;" parent="1" vertex="1">
          <mxGeometry x="454" y="790" width="340" height="150" as="geometry" />
        </mxCell>
        <mxCell id="GQkewHSHmFKiDq2fi6M9-8" value="en0 (172.25.100.217)" style="rounded=0;whiteSpace=wrap;html=1;" parent="1" vertex="1">
          <mxGeometry x="454" y="897.5" width="130" height="30" as="geometry" />
        </mxCell>
        <mxCell id="GQkewHSHmFKiDq2fi6M9-9" value="VM" style="rounded=0;whiteSpace=wrap;html=1;" parent="1" vertex="1">
          <mxGeometry x="624" y="802.5" width="160" height="125" as="geometry" />
        </mxCell>
        <mxCell id="GQkewHSHmFKiDq2fi6M9-10" value="AP&lt;br&gt;LossWiFi 5" style="ellipse;whiteSpace=wrap;html=1;" parent="1" vertex="1">
          <mxGeometry x="314" y="880" width="80" height="80" as="geometry" />
        </mxCell>
        <mxCell id="GQkewHSHmFKiDq2fi6M9-11" value="" style="endArrow=none;dashed=1;html=1;rounded=0;exitX=1;exitY=0.5;exitDx=0;exitDy=0;" parent="1" edge="1">
          <mxGeometry width="50" height="50" relative="1" as="geometry">
            <mxPoint x="394" y="920" as="sourcePoint" />
            <mxPoint x="454" y="920" as="targetPoint" />
          </mxGeometry>
        </mxCell>
        <mxCell id="GQkewHSHmFKiDq2fi6M9-12" value="wlx8416f9171bbc(192.168.1.125)" style="rounded=0;whiteSpace=wrap;html=1;" parent="1" vertex="1">
          <mxGeometry x="624" y="810" width="130" height="30" as="geometry" />
        </mxCell>
        <mxCell id="GQkewHSHmFKiDq2fi6M9-13" value="" style="endArrow=none;dashed=1;html=1;rounded=0;exitX=1;exitY=0.5;exitDx=0;exitDy=0;entryX=0.25;entryY=0;entryDx=0;entryDy=0;" parent="1" source="GQkewHSHmFKiDq2fi6M9-6" target="GQkewHSHmFKiDq2fi6M9-12" edge="1">
          <mxGeometry width="50" height="50" relative="1" as="geometry">
            <mxPoint x="374" y="990" as="sourcePoint" />
            <mxPoint x="454" y="815" as="targetPoint" />
            <Array as="points">
              <mxPoint x="494" y="750" />
            </Array>
          </mxGeometry>
        </mxCell>
        <mxCell id="GQkewHSHmFKiDq2fi6M9-14" value="enp0s5 (10.211.55.3)" style="rounded=0;whiteSpace=wrap;html=1;" parent="1" vertex="1">
          <mxGeometry x="624" y="890" width="130" height="30" as="geometry" />
        </mxCell>
        <mxCell id="GQkewHSHmFKiDq2fi6M9-15" value="" style="endArrow=none;html=1;rounded=0;exitX=1;exitY=0.25;exitDx=0;exitDy=0;entryX=0;entryY=0.5;entryDx=0;entryDy=0;" parent="1" source="GQkewHSHmFKiDq2fi6M9-8" target="GQkewHSHmFKiDq2fi6M9-14" edge="1">
          <mxGeometry width="50" height="50" relative="1" as="geometry">
            <mxPoint x="284" y="825" as="sourcePoint" />
            <mxPoint x="324" y="825" as="targetPoint" />
          </mxGeometry>
        </mxCell>
        <mxCell id="GQkewHSHmFKiDq2fi6M9-16" value="Reliable link" style="text;html=1;align=center;verticalAlign=middle;resizable=0;points=[];autosize=1;strokeColor=none;fillColor=none;" parent="1" vertex="1">
          <mxGeometry x="444" y="720" width="90" height="30" as="geometry" />
        </mxCell>
        <mxCell id="GQkewHSHmFKiDq2fi6M9-17" value="Test link" style="text;html=1;align=center;verticalAlign=middle;resizable=0;points=[];autosize=1;strokeColor=none;fillColor=none;" parent="1" vertex="1">
          <mxGeometry x="394" y="940" width="70" height="30" as="geometry" />
        </mxCell>
        <mxCell id="GQkewHSHmFKiDq2fi6M9-18" value="" style="endArrow=none;html=1;rounded=0;entryX=0;entryY=0.5;entryDx=0;entryDy=0;" parent="1" target="GQkewHSHmFKiDq2fi6M9-10" edge="1">
          <mxGeometry width="50" height="50" relative="1" as="geometry">
            <mxPoint x="290" y="815" as="sourcePoint" />
            <mxPoint x="324" y="825" as="targetPoint" />
          </mxGeometry>
        </mxCell>
        <mxCell id="GQkewHSHmFKiDq2fi6M9-19" value="./saturatr" style="text;html=1;align=center;verticalAlign=middle;resizable=0;points=[];autosize=1;strokeColor=none;fillColor=none;" parent="1" vertex="1">
          <mxGeometry x="70" y="960" width="70" height="30" as="geometry" />
        </mxCell>
        <mxCell id="GQkewHSHmFKiDq2fi6M9-21" value="tc qdisc" style="rounded=0;whiteSpace=wrap;html=1;" parent="1" vertex="1">
          <mxGeometry x="630" y="870" width="50" height="20" as="geometry" />
        </mxCell>
        <mxCell id="GQkewHSHmFKiDq2fi6M9-22" value="./saturatr 192.168.1.125 wlx8416f9171bbc 10.211.55.3 enp0s5 192.168.1.167" style="text;whiteSpace=wrap;html=1;" parent="1" vertex="1">
          <mxGeometry x="370" y="970" width="450" height="40" as="geometry" />
        </mxCell>
      </root>
    </mxGraphModel>
  </diagram>
</mxfile>
